<svg xmlns="http://www.w3.org/2000/svg" xml:space="preserve" id="monoline1-100" x="0" y="0"
  version="1.1" width="100" height="100" viewBox="0 0 100 100"><path stroke-linejoin="round" stroke-linecap="round" id="polyline1301" fill="none" stroke="currentColor" stroke-miterlimit="10" stroke-width="1.667" d="m49.998 50 8.296 41.704M49.998 100V50m35.356 14.644L49.998 50l29.974 20.028M49.998 49.999l14.645 35.356M75 75l-25-25 20.027 29.972m-40.055 0L49.998 50l-25 25m16.705 16.706 8.295-41.706-14.645 35.356m-27.06-27.06 41.705-8.296m0 0 41.706 8.296M20.025 70.027l29.973-20.028-35.356 14.645M45.954 29.67 41.7 8.3M50 29.267V0m-7.935 30.848-6.708-16.205M20.026 29.974c3.712 2.475 8.004 5.353 12.728 8.505m-18.11-3.123 16.195 6.708m-5.843-17.07 10.341 10.342m3.143-2.583-8.505-12.728M61.52 32.753c3.153-4.724 6.03-9.015 8.505-12.728m4.97 4.97L64.663 35.336M54.046 29.67 58.29 8.29m6.354 6.354-6.708 16.205M91.7 41.7l-21.37 4.253M100 49.999H50m0 0H0M8.29 41.7l21.37 4.253m50.314-15.979-12.738 8.505m18.12-3.123L69.16 42.064"/></svg>
