<svg xmlns="http://www.w3.org/2000/svg" xml:space="preserve" id="monoline1-67" x="0" y="0"
  version="1.1" viewBox="0 0 100 100"><style id="style2" type="text/css">.st1{stroke-linejoin:round}.st1,.st2{fill:none;stroke:currentColor;stroke-width:1;stroke-linecap:round;stroke-miterlimit:10}</style><g id="g42" transform="matrix(.9804 0 0 .9804 -28.431 -28.431)"><path id="path40" fill="none" stroke="currentColor" stroke-miterlimit="10" stroke-width="1" d="M65 110c-5.523 0-10-4.477-10-10s4.477-10 10-10m30 20c-5.523 0-10-4.477-10-10s4.477-10 10-10m-15 20c-5.523 0-10-4.477-10-10s4.477-10 10-10m-5 20c-5.523 0-10-4.477-10-10s4.477-10 10-10m10 20c-5.523 0-10-4.477-10-10s4.477-10 10-10m5 20c-5.523 0-10-4.477-10-10s4.477-10 10-10m-20 20c-5.523 0-10-4.477-10-10s4.477-10 10-10m-5-20c-5.523 0-10-4.477-10-10s4.477-10 10-10m30 20c-5.523 0-10-4.477-10-10s4.477-10 10-10M80 70c-5.523 0-10-4.477-10-10s4.477-10 10-10m-5 20c-5.523 0-10-4.477-10-10s4.477-10 10-10m10 20c-5.523 0-10-4.477-10-10s4.477-10 10-10m5 20c-5.523 0-10-4.477-10-10s4.477-10 10-10M70 70c-5.523 0-10-4.477-10-10s4.477-10 10-10m30 20H60c-5.52 0-10-4.48-10-10s4.48-10 10-10h40c-5.52 0-10 4.48-10 10s4.48 10 10 10zm10-30c0 5.52-4.48 10-10 10H60c5.52 0 10-4.48 10-10s-4.48-10-10-10h40c5.52 0 10 4.48 10 10zm0 40c0 5.52-4.48 10-10 10H60c5.52 0 10-4.48 10-10s-4.48-10-10-10h40c5.52 0 10 4.48 10 10zm-10 30H60c-5.52 0-10-4.48-10-10s4.48-10 10-10h40c-5.52 0-10 4.48-10 10s4.48 10 10 10zm10 10c0 5.52-4.48 10-10 10H60c5.52 0 10-4.48 10-10s-4.48-10-10-10h40c5.52 0 10 4.48 10 10z"/></g></svg>
