<svg id="Capa_1" xmlns="http://www.w3.org/2000/svg" width="100" height="100" viewBox="0 0 17.503 32" fill="currentColor"><path d="M12.656 7.88l-.022 6.542 4.869.493zM5.81 17.688s.969.402 1.325 0c0 0 .356-2.646 2.141-4.291V2.249S8.614-.147 6.167.007c-2.446.152-2.65 2.345-2.65 2.345s.023.32.053.88a7.284 7.284 0 005.196-.474S6.87 4.83 3.616 4.187c.087 2.07.164 5.62-.1 9.21 0 0 1.835 1.534 2.294 4.291z"/><path d="M11.634 7.88h-1.575v6.062c-2.265 1.823-2.341 4.637-2.341 4.637-.453.444-2.406-.097-2.406-.097-.582-3.056-2.565-4.541-2.565-4.541.177-2.114.232-4.213.229-6.062H0s.643 12.06 0 23.552c0 0 11.197.772 16.923.517l.426-15.974-6.092.095.377-8.189zm2.981 21.251l-12.125.258v-1.283l12.125-1.026v2.051zm0-3.079l-12.125.257V24.77l12.125-1.026v2.308zm0-5.389v2.053l-12.125.257V21.69l12.125-1.027z"/></svg>