<svg id="Capa_1" xmlns="http://www.w3.org/2000/svg" width="100" height="100" viewBox="0 0 26.229 32" fill="currentColor"><path d="M22.977 23.954s2.152.88 2.548.397c1.01-1.228-1.855-6.164-1.855-6.164s1.488 2.121 2.018 1.153c1.659-3.024-2.71-6.197-2.71-6.197s1.479.935 2.134-.145c1.369-2.253-3.459-6.342-3.459-6.342s1.909 1.332 2.45-.182c.506-1.418-7.645-8.632-15.395-5.84S-.834 11.014.319 11.338c1.152.325 2.018-.647 2.018-.647s-3.043 4.162-1.153 7.641c1.086 1.997 2.368-1.461 2.543-1.959-.213.619-1.975 5.938-.272 7.345 1.072.889 2.054-1.783 2.054-1.783s-1.478 5.586-.054 5.729c1.052.106 1.929-.946 2.316-1.504-.723 1.16-2.905 4.988-.771 5.722 2.52.864 6.715-3.315 6.715-3.315s-.812 3.511 1.725 3.315c4.229-.325 3.904-5.334 3.904-5.334s1.675 5.117 6.342 2.738c2.13-1.084-2.709-5.332-2.709-5.332zM14.901 6.418c1.058-.201 2.149.885 2.44 2.427.292 1.539-.327 2.95-1.384 3.149-1.058.201-2.149-.886-2.44-2.427-.291-1.539.328-2.95 1.384-3.149zM9.712 8.147c1.056-.2 2.148.886 2.44 2.426.291 1.54-.328 2.95-1.384 3.151-1.057.2-2.147-.887-2.44-2.427-.292-1.539.328-2.95 1.384-3.15zm7.202 16.546c-5.189 2.432-9.418-2.243-9.136-2.865.289-.637.735-1.23 1.285-1.787.528.669 1.975 2.341 2.932 1.949 1.017-.415.298-3.311.065-4.146 1.188-.669 2.473-1.236 3.69-1.695.308.992 1.208 3.589 2.146 3.34.979-.259 1.29-3.462 1.362-4.446 1.029-.258 1.725-.359 1.817-.294.38.269 1.027 7.512-4.161 9.944z"/></svg>