<svg id="Capa_1" xmlns="http://www.w3.org/2000/svg" width="100" height="100" viewBox="0 0 28.661 32" fill="currentColor"><path d="M25.893 8.32s3.42-6.103 2.656-6.691c-.6-.461-3.336.925-4.48 1.541-3.298-3.459-10.794-4.951-16.129.049C6.976 2.416 4.267.241 3.76.748c-1.056 1.057.752 5.443 1.448 7.011-2.013 6.079-.978 14.489-.978 14.489S-.585 23.832.06 24.773c1.526 2.231 5.051-.176 5.051-.176S.94 29.06 2.762 30.176c3.031 1.858 6.403-3.229 6.403-3.229S8.166 32 10.633 32c2.878 0 4.288-4.643 4.288-4.643s1.41 5.053 5.935 3.584c2.138-.693-1.646-4.348-1.646-4.348s4.348 1.881 6.168-.471c.613-.788-2.584-1.938-2.584-1.938s3.234-9.545 3.099-15.864zm-7.584-2.618c1.471 0 2.663 1.524 2.663 3.407 0 1.882-1.192 3.407-2.663 3.407s-2.663-1.525-2.663-3.407c0-1.882 1.192-3.407 2.663-3.407zm-7.049.47c1.471 0 2.663 1.525 2.663 3.407 0 1.882-1.192 3.407-2.663 3.407-1.471 0-2.663-1.525-2.663-3.407 0-1.882 1.192-3.407 2.663-3.407zm1.37 19.071c-5.346-.058-6.051-7.372-5.522-7.976.097-.108.563-.273 1.272-.461.338.897 1.171 2.889 1.9 2.797.718-.09 1.263-2.4 1.481-3.491 1.555-.256 3.303-.471 4.932-.55.031 1.216.16 3.648.695 3.748 1.362.252 2.896-2.699 3.301-3.536.499.113.919.27 1.222.481.825.574-3.935 9.048-9.281 8.988z"/></svg>