<?xml version="1.0" encoding="UTF-8" standalone="no"?>
<!-- Created with Inkscape (http://www.inkscape.org/) -->

<svg
  width="100"
  height="100"
  viewBox="0 0 100 100"
  version="1.1"
  id="github"
  xml:space="preserve"
  xmlns:inkscape="http://www.inkscape.org/namespaces/inkscape"
  xmlns:sodipodi="http://sodipodi.sourceforge.net/DTD/sodipodi-0.dtd"
  xmlns="http://www.w3.org/2000/svg"
  xmlns:svg="http://www.w3.org/2000/svg"><sodipodi:namedview
     id="namedview137"
     pagecolor="#f4f4f2"
     bordercolor="#ffffff"
     borderopacity="1"
     inkscape:showpageshadow="0"
     inkscape:pageopacity="1"
     inkscape:pagecheckerboard="1"
     inkscape:deskcolor="#d1d1d1"
     inkscape:document-units="px"
     showgrid="false"
     showguides="true" /><defs
     id="defs132" /><g
     inkscape:label="Layer 1"
     inkscape:groupmode="layer"
     id="layer1"><path
       style="fill:none;stroke:#000000;stroke-width:1px;stroke-linecap:butt;stroke-linejoin:miter;stroke-opacity:1"
       d="m 10.764522,45.084867 c 0,0 5.700117,0.45585 7.963698,1.993654 4.898801,3.328072 6.265695,10.155709 10.361599,14.433459 3.778057,3.945789 9.559856,4.715147 14.325437,3.50756 2.693865,-0.682618 6.176724,-5.599869 6.176724,-5.599869"
       id="path12253-5"
       sodipodi:nodetypes="casac" /><ellipse
       style="fill:none;fill-opacity:1;stroke:currentColor;stroke-width:1;stroke-linecap:round;stroke-linejoin:round;stroke-dasharray:none;stroke-opacity:1"
       id="path22665"
       cx="49.591976"
       cy="34.232887"
       rx="25.18466"
       ry="25.186781" /><path
       style="fill:none;stroke:#000000;stroke-width:0.999994px;stroke-linecap:butt;stroke-linejoin:miter;stroke-opacity:1"
       d="M 49.473035,98.19599 V 59.419671"
       id="path22817-1" /><path
       style="fill:none;stroke:#000000;stroke-width:1px;stroke-linecap:butt;stroke-linejoin:miter;stroke-opacity:1"
       d="m 49.473035,59.419671 c -0.328153,-0.06536 -0.121523,2.049626 -1.837007,6.340581 -1.715485,4.290957 -11.449836,0.514797 -17.02451,6.08994 -5.574674,5.575143 -5.037561,19.343626 -5.037561,19.343626"
       id="path26526"
       sodipodi:nodetypes="czzc" /><path
       style="fill:none;stroke:#000000;stroke-width:1px;stroke-linecap:butt;stroke-linejoin:miter;stroke-opacity:1"
       d="m 49.59198,59.419671 c 0.328153,-0.06536 0.121524,2.049626 1.837007,6.340581 1.715486,4.290957 11.449837,0.514797 17.02451,6.08994 5.574674,5.575143 5.037561,19.343626 5.037561,19.343626"
       id="path26526-0"
       sodipodi:nodetypes="czzc" /><path
       id="path26555"
       style="fill:none;stroke:#000000;stroke-width:1px;stroke-linecap:round;stroke-linejoin:miter;stroke-opacity:1"
       d="m 22.526745,27.230876 c 0,0 -0.110977,-4.780911 -0.486973,-7.088126 C 21.082542,14.268935 17.590075,3.2760407 17.590075,3.2760407 m 0,0 11.774331,7.9863273"
       sodipodi:nodetypes="csccc" /><path
       id="path26555-2"
       style="fill:none;stroke:#000000;stroke-width:1px;stroke-linecap:round;stroke-linejoin:miter;stroke-opacity:1"
       d="m 76.83589,27.230876 c 0,0 0.110977,-4.780911 0.486973,-7.088126 0.95723,-5.873815 4.449697,-16.8667093 4.449697,-16.8667093 m 0,0 -11.77433,7.9863273"
       sodipodi:nodetypes="csccc" /></g></svg>
