<svg id="scroll_indicator" xmlns="http://www.w3.org/2000/svg" style="isolation:isolate" viewBox="1.599 -1.6 28.801 32" width="100" height="100" fill="currentColor"><path d="M30.401 1.66c0-.868-2.681-3.259-3.574-3.259-.894 0-9.564 12.298-10.196 12.298-.63 0-9.8-12.299-10.616-12.299-.816 0-4.416 3.995-4.416 4.731 0 .736 14.216 13.77 15.137 13.77.92 0 13.665-14.375 13.665-15.241z"/><path d="M30.4 15.161c0-.868-2.68-3.26-3.573-3.26-.894 0-9.564 12.298-10.196 12.298-.63 0-9.8-12.299-10.616-12.299-.815 0-4.414 3.996-4.414 4.73 0 .736 14.216 13.771 15.136 13.771.919 0 13.663-14.375 13.663-15.24z"/></svg>