<?xml version="1.0" encoding="UTF-8" standalone="no"?>
<!-- Generator: Gravit.io -->
<svg id="scroll_indicator" xmlns="http://www.w3.org/2000/svg" xmlns:xlink="http://www.w3.org/1999/xlink" style="isolation:isolate" viewBox="1.599 -1.6 28.801 32" width="100" height="100" fill="currentColor">
<g>
<g>
<path d=" M 30.401 1.66 C 30.401 0.792 27.72 -1.599 26.827 -1.599 C 25.933 -1.599 17.263 10.699 16.631 10.699 C 16.001 10.699 6.831 -1.6 6.015 -1.6 C 5.199 -1.6 1.599 2.395 1.599 3.131 C 1.599 3.867 15.815 16.901 16.736 16.901 C 17.656 16.901 30.401 2.526 30.401 1.66 Z "/>
<path d=" M 30.4 15.161 C 30.4 14.293 27.72 11.901 26.827 11.901 C 25.933 11.901 17.263 24.199 16.631 24.199 C 16.001 24.199 6.831 11.9 6.015 11.9 C 5.2 11.9 1.601 15.896 1.601 16.63 C 1.601 17.366 15.817 30.401 16.737 30.401 C 17.656 30.401 30.4 16.026 30.4 15.161 Z " />
</g></g></svg>