<svg xmlns="http://www.w3.org/2000/svg" width="100" height="100" id="Capa_1" fill="currentColor" viewBox="0 0 29.389 32"><path d="M25.979 13.062v.004a11.562 11.562 0 00-1.172-3.361l.001.002 2.12-3.293-3.729-3.355L20.14 5.17a10.479 10.479 0 00-3.139-.979l.006-.002L15.888 0l-4.326.82-.914 4.352.004-.002c-.9.422-1.756.959-2.544 1.607l-3.47-1.605L2.685 7.98l1.953 3.357.002-.002a12.629 12.629 0 00-.967 3.203v-.002L0 15.068v3.877l4.109 1.291c.277.84.646 1.639 1.105 2.387l-.001-.002-2.529 3.113 3.085 2.834 3.086-2.354c.228.136.46.266.702.386.358.178.723.33 1.091.463L12.382 32h3.879l.746-4.668h-.001a11.725 11.725 0 002.725-1.082l3.169 1.945 2.553-2.687-1.659-2.889a12.95 12.95 0 001.076-1.789c.226-.455.417-.92.583-1.386v.002l3.937-1.622V14.32l-3.411-1.258zm-13.786 8.377c-2.795-1.084-3.979-4.746-2.646-8.174 1.333-3.43 4.678-5.33 7.472-4.244s3.979 4.746 2.646 8.176c-1.334 3.43-4.678 5.33-7.472 4.242z"/></svg>