<svg id="Capa_1" xmlns="http://www.w3.org/2000/svg" width="100" height="100" viewBox="0 0 32 31.085" fill="currentColor"><path d="M31.947 6.35c-.688-.42-5.127-1.472-5.131-1.473C26.551 3.127 25.604 0 22.2 0c-4.021 0-4.457 2.447-5.681 4.981C15.417 7.264 8.554 12.023 0 11.274c0 0 2.605 6.616 8.016 9.183-.004-2.937 2.349-5.646 5.712-6.331 3.409-.693 6.676.938 7.774 3.711 2.982-2.493 4.328-5.567 4.934-7.957l-.002.025c0 .002 6.201-3.134 5.513-3.555zm-7.945.002c-.402 1.211-1.547 1.92-2.553 1.584-1.01-.336-1.498-1.589-1.096-2.8.403-1.211 1.547-1.92 2.557-1.584 1.007.336 1.497 1.59 1.092 2.8z"/><path d="M21.143 18.134c-1.35-2.309-4.324-3.587-7.415-2.959-2.974.604-5.155 2.795-5.619 5.325 1.16.537 2.449.885 3.866.944l.729 6.669-2.331.934v.582l2.331-.467 1.224 1.924.699-.523-.699-1.34 1.923.35.233-.814-2.215-.467-1.177-6.836c.938-.025 1.93-.181 2.975-.484l1.278 4.064-2.104 1.364.113.571 2.194-.91 1.574 1.647.584-.65-.945-1.18 1.953-.03.068-.847-2.262-.024-1.641-4.272c.213-.078.432-.162.648-.252 1.582-.655 2.905-1.446 4.016-2.319z"/></svg>